<mxfile host="app.diagrams.net" modified="2022-09-01T15:59:29.756Z" agent="5.0 (Windows NT 10.0; Win64; x64) AppleWebKit/537.36 (KHTML, like Gecko) Chrome/104.0.0.0 Safari/537.36" etag="Tt85E6kibj3YQ2uhLZhJ" version="20.2.7" type="github">
  <diagram id="ywX7vp8uG3cQxK1kJ-Zk" name="Halaman-1">
    <mxGraphModel dx="1574" dy="831" grid="1" gridSize="10" guides="1" tooltips="1" connect="1" arrows="1" fold="1" page="1" pageScale="1" pageWidth="827" pageHeight="1169" math="0" shadow="0">
      <root>
        <mxCell id="0" />
        <mxCell id="1" parent="0" />
        <mxCell id="oPGQK5EQV7Yhb5FT4N1o-11" value="admin" style="swimlane;childLayout=stackLayout;horizontal=1;startSize=30;horizontalStack=0;rounded=1;fontSize=14;fontStyle=0;strokeWidth=2;resizeParent=0;resizeLast=1;shadow=0;dashed=0;align=center;arcSize=0;" parent="1" vertex="1">
          <mxGeometry x="370" y="379" width="70" height="110" as="geometry" />
        </mxCell>
        <mxCell id="oPGQK5EQV7Yhb5FT4N1o-12" value="id *&#xa;username&#xa;password&#xa;cookie" style="align=left;strokeColor=none;fillColor=none;spacingLeft=4;fontSize=12;verticalAlign=top;resizable=0;rotatable=0;part=1;fontStyle=0" parent="oPGQK5EQV7Yhb5FT4N1o-11" vertex="1">
          <mxGeometry y="30" width="70" height="80" as="geometry" />
        </mxCell>
        <mxCell id="oPGQK5EQV7Yhb5FT4N1o-25" value="banner" style="swimlane;childLayout=stackLayout;horizontal=1;startSize=30;horizontalStack=0;rounded=1;fontSize=14;fontStyle=0;strokeWidth=2;resizeParent=0;resizeLast=1;shadow=0;dashed=0;align=center;arcSize=0;" parent="1" vertex="1">
          <mxGeometry x="270" y="255" width="80" height="90" as="geometry" />
        </mxCell>
        <mxCell id="oPGQK5EQV7Yhb5FT4N1o-26" value="id *&#xa;img&#xa;url" style="align=left;strokeColor=none;fillColor=none;spacingLeft=4;fontSize=12;verticalAlign=top;resizable=0;rotatable=0;part=1;fontStyle=0" parent="oPGQK5EQV7Yhb5FT4N1o-25" vertex="1">
          <mxGeometry y="30" width="80" height="60" as="geometry" />
        </mxCell>
        <mxCell id="oPGQK5EQV7Yhb5FT4N1o-27" value="categories" style="swimlane;childLayout=stackLayout;horizontal=1;startSize=30;horizontalStack=0;rounded=1;fontSize=14;fontStyle=0;strokeWidth=2;resizeParent=0;resizeLast=1;shadow=0;dashed=0;align=center;arcSize=0;" parent="1" vertex="1">
          <mxGeometry x="440" y="499" width="80" height="100" as="geometry" />
        </mxCell>
        <mxCell id="oPGQK5EQV7Yhb5FT4N1o-28" value="id *&#xa;name&#xa;icon&#xa;slug" style="align=left;strokeColor=none;fillColor=none;spacingLeft=4;fontSize=12;verticalAlign=top;resizable=0;rotatable=0;part=1;fontStyle=0" parent="oPGQK5EQV7Yhb5FT4N1o-27" vertex="1">
          <mxGeometry y="30" width="80" height="70" as="geometry" />
        </mxCell>
        <mxCell id="oPGQK5EQV7Yhb5FT4N1o-29" value="cod" style="swimlane;childLayout=stackLayout;horizontal=1;startSize=30;horizontalStack=0;rounded=1;fontSize=14;fontStyle=0;strokeWidth=2;resizeParent=0;resizeLast=1;shadow=0;dashed=0;align=center;arcSize=0;" parent="1" vertex="1">
          <mxGeometry x="230" y="659" width="80" height="70" as="geometry" />
        </mxCell>
        <mxCell id="oPGQK5EQV7Yhb5FT4N1o-30" value="id *&#xa;regency_id" style="align=left;strokeColor=none;fillColor=none;spacingLeft=4;fontSize=12;verticalAlign=top;resizable=0;rotatable=0;part=1;fontStyle=0" parent="oPGQK5EQV7Yhb5FT4N1o-29" vertex="1">
          <mxGeometry y="30" width="80" height="40" as="geometry" />
        </mxCell>
        <mxCell id="oPGQK5EQV7Yhb5FT4N1o-32" value="cost_delivery" style="swimlane;childLayout=stackLayout;horizontal=1;startSize=30;horizontalStack=0;rounded=1;fontSize=14;fontStyle=0;strokeWidth=2;resizeParent=0;resizeLast=1;shadow=0;dashed=0;align=center;arcSize=0;" parent="1" vertex="1">
          <mxGeometry x="60" y="409" width="90" height="90" as="geometry" />
        </mxCell>
        <mxCell id="oPGQK5EQV7Yhb5FT4N1o-33" value="id *&#xa;destination&#xa;price" style="align=left;strokeColor=none;fillColor=none;spacingLeft=4;fontSize=12;verticalAlign=top;resizable=0;rotatable=0;part=1;fontStyle=0" parent="oPGQK5EQV7Yhb5FT4N1o-32" vertex="1">
          <mxGeometry y="30" width="90" height="60" as="geometry" />
        </mxCell>
        <mxCell id="oPGQK5EQV7Yhb5FT4N1o-36" value="footer" style="swimlane;childLayout=stackLayout;horizontal=1;startSize=30;horizontalStack=0;rounded=1;fontSize=14;fontStyle=0;strokeWidth=2;resizeParent=0;resizeLast=1;shadow=0;dashed=0;align=center;arcSize=0;" parent="1" vertex="1">
          <mxGeometry x="40" y="569" width="70" height="80" as="geometry" />
        </mxCell>
        <mxCell id="oPGQK5EQV7Yhb5FT4N1o-37" value="id *&#xa;page&#xa;type" style="align=left;strokeColor=none;fillColor=none;spacingLeft=4;fontSize=12;verticalAlign=top;resizable=0;rotatable=0;part=1;fontStyle=0" parent="oPGQK5EQV7Yhb5FT4N1o-36" vertex="1">
          <mxGeometry y="30" width="70" height="50" as="geometry" />
        </mxCell>
        <mxCell id="oPGQK5EQV7Yhb5FT4N1o-38" value="general" style="swimlane;childLayout=stackLayout;horizontal=1;startSize=30;horizontalStack=0;rounded=1;fontSize=14;fontStyle=0;strokeWidth=2;resizeParent=0;resizeLast=1;shadow=0;dashed=0;align=center;arcSize=0;" parent="1" vertex="1">
          <mxGeometry x="50" y="210" width="90" height="180" as="geometry" />
        </mxCell>
        <mxCell id="oPGQK5EQV7Yhb5FT4N1o-39" value="id *&#xa;app_name&#xa;slogan&#xa;navbar_color&#xa;api_rajaongkir&#xa;account_gmail&#xa;pass_gmail&#xa;whatsapp&#xa;whatsappv2&#xa;email_contact" style="align=left;strokeColor=none;fillColor=none;spacingLeft=4;fontSize=12;verticalAlign=top;resizable=0;rotatable=0;part=1;fontStyle=0" parent="oPGQK5EQV7Yhb5FT4N1o-38" vertex="1">
          <mxGeometry y="30" width="90" height="150" as="geometry" />
        </mxCell>
        <mxCell id="oPGQK5EQV7Yhb5FT4N1o-40" value="img_product" style="swimlane;childLayout=stackLayout;horizontal=1;startSize=30;horizontalStack=0;rounded=1;fontSize=14;fontStyle=0;strokeWidth=2;resizeParent=0;resizeLast=1;shadow=0;dashed=0;align=center;arcSize=0;" parent="1" vertex="1">
          <mxGeometry x="550" y="569" width="100" height="80" as="geometry" />
        </mxCell>
        <mxCell id="oPGQK5EQV7Yhb5FT4N1o-41" value="id *&#xa;id_product&#xa;img" style="align=left;strokeColor=none;fillColor=none;spacingLeft=4;fontSize=12;verticalAlign=top;resizable=0;rotatable=0;part=1;fontStyle=0" parent="oPGQK5EQV7Yhb5FT4N1o-40" vertex="1">
          <mxGeometry y="30" width="100" height="50" as="geometry" />
        </mxCell>
        <mxCell id="oPGQK5EQV7Yhb5FT4N1o-42" value="invoice" style="swimlane;childLayout=stackLayout;horizontal=1;startSize=30;horizontalStack=0;rounded=1;fontSize=14;fontStyle=0;strokeWidth=2;resizeParent=0;resizeLast=1;shadow=0;dashed=0;align=center;arcSize=0;" parent="1" vertex="1">
          <mxGeometry x="510" y="65" width="90" height="330" as="geometry" />
        </mxCell>
        <mxCell id="oPGQK5EQV7Yhb5FT4N1o-43" value="id *&#xa;invoice_code&#xa;label&#xa;name&#xa;email&#xa;telp&#xa;province&#xa;regency&#xa;district&#xa;village&#xa;zipcode&#xa;address&#xa;courier&#xa;courier_service&#xa;ongkir&#xa;total_price&#xa;total_all&#xa;date_input&#xa;date_limit&#xa;process&#xa;send" style="align=left;strokeColor=none;fillColor=none;spacingLeft=4;fontSize=12;verticalAlign=top;resizable=0;rotatable=0;part=1;fontStyle=0" parent="oPGQK5EQV7Yhb5FT4N1o-42" vertex="1">
          <mxGeometry y="30" width="90" height="300" as="geometry" />
        </mxCell>
        <mxCell id="oPGQK5EQV7Yhb5FT4N1o-51" value="pages" style="swimlane;childLayout=stackLayout;horizontal=1;startSize=30;horizontalStack=0;rounded=1;fontSize=14;fontStyle=0;strokeWidth=2;resizeParent=0;resizeLast=1;shadow=0;dashed=0;align=center;arcSize=0;" parent="1" vertex="1">
          <mxGeometry x="440" y="610" width="70" height="100" as="geometry" />
        </mxCell>
        <mxCell id="oPGQK5EQV7Yhb5FT4N1o-52" value="id *&#xa;title&#xa;content&#xa;slug" style="align=left;strokeColor=none;fillColor=none;spacingLeft=4;fontSize=12;verticalAlign=top;resizable=0;rotatable=0;part=1;fontStyle=0" parent="oPGQK5EQV7Yhb5FT4N1o-51" vertex="1">
          <mxGeometry y="30" width="70" height="70" as="geometry" />
        </mxCell>
        <mxCell id="oPGQK5EQV7Yhb5FT4N1o-56" value="products" style="swimlane;childLayout=stackLayout;horizontal=1;startSize=30;horizontalStack=0;rounded=1;fontSize=14;fontStyle=0;strokeWidth=2;resizeParent=0;resizeLast=1;shadow=0;dashed=0;align=center;arcSize=0;" parent="1" vertex="1">
          <mxGeometry x="680" y="390" width="90" height="250.5" as="geometry" />
        </mxCell>
        <mxCell id="oPGQK5EQV7Yhb5FT4N1o-57" value="id *&#xa;title&#xa;price&#xa;stock&#xa;category&#xa;condit&#xa;weight&#xa;img&#xa;description&#xa;date_submit&#xa;publish&#xa;slug&#xa;transaction&#xa;promo_price&#xa;viewer" style="align=left;strokeColor=none;fillColor=none;spacingLeft=4;fontSize=12;verticalAlign=top;resizable=0;rotatable=0;part=1;fontStyle=0" parent="oPGQK5EQV7Yhb5FT4N1o-56" vertex="1">
          <mxGeometry y="30" width="90" height="220.5" as="geometry" />
        </mxCell>
        <mxCell id="oPGQK5EQV7Yhb5FT4N1o-58" value="rekening" style="swimlane;childLayout=stackLayout;horizontal=1;startSize=30;horizontalStack=0;rounded=1;fontSize=14;fontStyle=0;strokeWidth=2;resizeParent=0;resizeLast=1;shadow=0;dashed=0;align=center;arcSize=0;" parent="1" vertex="1">
          <mxGeometry x="130" y="569" width="70" height="100" as="geometry" />
        </mxCell>
        <mxCell id="oPGQK5EQV7Yhb5FT4N1o-59" value="id *&#xa;rekening&#xa;name&#xa;number" style="align=left;strokeColor=none;fillColor=none;spacingLeft=4;fontSize=12;verticalAlign=top;resizable=0;rotatable=0;part=1;fontStyle=0" parent="oPGQK5EQV7Yhb5FT4N1o-58" vertex="1">
          <mxGeometry y="30" width="70" height="70" as="geometry" />
        </mxCell>
        <mxCell id="oPGQK5EQV7Yhb5FT4N1o-60" value="setting" style="swimlane;childLayout=stackLayout;horizontal=1;startSize=30;horizontalStack=0;rounded=1;fontSize=14;fontStyle=0;strokeWidth=2;resizeParent=0;resizeLast=1;shadow=0;dashed=0;align=center;arcSize=0;" parent="1" vertex="1">
          <mxGeometry x="230" y="429" width="90" height="190" as="geometry" />
        </mxCell>
        <mxCell id="oPGQK5EQV7Yhb5FT4N1o-61" value="id *&#xa;promo&#xa;promo_time&#xa;short_desc&#xa;address&#xa;regency_id&#xa;verify&#xa;logo&#xa;favicon&#xa;ongkir&#xa;default_ongkir" style="align=left;strokeColor=none;fillColor=none;spacingLeft=4;fontSize=12;verticalAlign=top;resizable=0;rotatable=0;part=1;fontStyle=0" parent="oPGQK5EQV7Yhb5FT4N1o-60" vertex="1">
          <mxGeometry y="30" width="90" height="160" as="geometry" />
        </mxCell>
        <mxCell id="oPGQK5EQV7Yhb5FT4N1o-66" value="sosmed" style="swimlane;childLayout=stackLayout;horizontal=1;startSize=30;horizontalStack=0;rounded=1;fontSize=14;fontStyle=0;strokeWidth=2;resizeParent=0;resizeLast=1;shadow=0;dashed=0;align=center;arcSize=0;" parent="1" vertex="1">
          <mxGeometry x="330" y="559" width="70" height="100" as="geometry" />
        </mxCell>
        <mxCell id="oPGQK5EQV7Yhb5FT4N1o-67" value="id *&#xa;name&#xa;icon&#xa;link" style="align=left;strokeColor=none;fillColor=none;spacingLeft=4;fontSize=12;verticalAlign=top;resizable=0;rotatable=0;part=1;fontStyle=0" parent="oPGQK5EQV7Yhb5FT4N1o-66" vertex="1">
          <mxGeometry y="30" width="70" height="70" as="geometry" />
        </mxCell>
        <mxCell id="oPGQK5EQV7Yhb5FT4N1o-70" value="testimonial" style="swimlane;childLayout=stackLayout;horizontal=1;startSize=30;horizontalStack=0;rounded=1;fontSize=14;fontStyle=0;strokeWidth=2;resizeParent=0;resizeLast=1;shadow=0;dashed=0;align=center;arcSize=0;" parent="1" vertex="1">
          <mxGeometry x="530" y="429" width="80" height="110" as="geometry" />
        </mxCell>
        <mxCell id="oPGQK5EQV7Yhb5FT4N1o-71" value="id *&#xa;name&#xa;photo&#xa;content&#xa;headline" style="align=left;strokeColor=none;fillColor=none;spacingLeft=4;fontSize=12;verticalAlign=top;resizable=0;rotatable=0;part=1;fontStyle=0" parent="oPGQK5EQV7Yhb5FT4N1o-70" vertex="1">
          <mxGeometry y="30" width="80" height="80" as="geometry" />
        </mxCell>
        <mxCell id="oPGQK5EQV7Yhb5FT4N1o-72" value="transaction" style="swimlane;childLayout=stackLayout;horizontal=1;startSize=30;horizontalStack=0;rounded=1;fontSize=14;fontStyle=0;strokeWidth=2;resizeParent=0;resizeLast=1;shadow=0;dashed=0;align=center;arcSize=0;" parent="1" vertex="1">
          <mxGeometry x="700" y="130" width="100" height="140" as="geometry" />
        </mxCell>
        <mxCell id="oPGQK5EQV7Yhb5FT4N1o-73" value="id *&#xa;id_invoice&#xa;product_name&#xa;price&#xa;qty&#xa;slug&#xa;ket" style="align=left;strokeColor=none;fillColor=none;spacingLeft=4;fontSize=12;verticalAlign=top;resizable=0;rotatable=0;part=1;fontStyle=0" parent="oPGQK5EQV7Yhb5FT4N1o-72" vertex="1">
          <mxGeometry y="30" width="100" height="110" as="geometry" />
        </mxCell>
        <mxCell id="oNtJTbuHNWOZ2GnLEHNI-9" value="" style="endArrow=none;html=1;rounded=0;strokeColor=default;exitX=0.5;exitY=0;exitDx=0;exitDy=0;entryX=1.019;entryY=0.085;entryDx=0;entryDy=0;entryPerimeter=0;" edge="1" parent="1" source="oPGQK5EQV7Yhb5FT4N1o-66" target="oPGQK5EQV7Yhb5FT4N1o-60">
          <mxGeometry width="50" height="50" relative="1" as="geometry">
            <mxPoint x="390" y="569" as="sourcePoint" />
            <mxPoint x="440" y="519" as="targetPoint" />
          </mxGeometry>
        </mxCell>
        <mxCell id="oNtJTbuHNWOZ2GnLEHNI-10" value="" style="endArrow=none;html=1;rounded=0;strokeColor=default;entryX=-0.029;entryY=0.1;entryDx=0;entryDy=0;entryPerimeter=0;exitX=0.25;exitY=0;exitDx=0;exitDy=0;" edge="1" parent="1" source="oPGQK5EQV7Yhb5FT4N1o-58" target="oPGQK5EQV7Yhb5FT4N1o-60">
          <mxGeometry width="50" height="50" relative="1" as="geometry">
            <mxPoint x="167.5" y="569" as="sourcePoint" />
            <mxPoint x="440" y="519" as="targetPoint" />
          </mxGeometry>
        </mxCell>
        <mxCell id="oNtJTbuHNWOZ2GnLEHNI-13" value="" style="endArrow=none;html=1;rounded=0;strokeColor=default;entryX=1.024;entryY=0.153;entryDx=0;entryDy=0;entryPerimeter=0;exitX=-0.013;exitY=0.075;exitDx=0;exitDy=0;exitPerimeter=0;" edge="1" parent="1" source="oPGQK5EQV7Yhb5FT4N1o-56" target="oPGQK5EQV7Yhb5FT4N1o-11">
          <mxGeometry width="50" height="50" relative="1" as="geometry">
            <mxPoint x="390" y="569" as="sourcePoint" />
            <mxPoint x="440" y="519" as="targetPoint" />
          </mxGeometry>
        </mxCell>
        <mxCell id="oNtJTbuHNWOZ2GnLEHNI-16" value="" style="endArrow=none;html=1;rounded=0;strokeColor=default;exitX=0.5;exitY=0;exitDx=0;exitDy=0;entryX=0.024;entryY=0.121;entryDx=0;entryDy=0;entryPerimeter=0;" edge="1" parent="1" source="oPGQK5EQV7Yhb5FT4N1o-60" target="oPGQK5EQV7Yhb5FT4N1o-11">
          <mxGeometry width="50" height="50" relative="1" as="geometry">
            <mxPoint x="390" y="569" as="sourcePoint" />
            <mxPoint x="440" y="519" as="targetPoint" />
          </mxGeometry>
        </mxCell>
        <mxCell id="oNtJTbuHNWOZ2GnLEHNI-17" value="" style="endArrow=none;html=1;rounded=0;strokeColor=default;entryX=0.5;entryY=0;entryDx=0;entryDy=0;exitX=1.004;exitY=0.173;exitDx=0;exitDy=0;exitPerimeter=0;" edge="1" parent="1" source="oPGQK5EQV7Yhb5FT4N1o-11" target="oPGQK5EQV7Yhb5FT4N1o-27">
          <mxGeometry width="50" height="50" relative="1" as="geometry">
            <mxPoint x="390" y="569" as="sourcePoint" />
            <mxPoint x="440" y="519" as="targetPoint" />
          </mxGeometry>
        </mxCell>
        <mxCell id="oNtJTbuHNWOZ2GnLEHNI-18" value="" style="endArrow=none;html=1;rounded=0;strokeColor=default;exitX=0.75;exitY=0;exitDx=0;exitDy=0;entryX=-0.013;entryY=0.1;entryDx=0;entryDy=0;entryPerimeter=0;" edge="1" parent="1" source="oPGQK5EQV7Yhb5FT4N1o-36" target="oPGQK5EQV7Yhb5FT4N1o-60">
          <mxGeometry width="50" height="50" relative="1" as="geometry">
            <mxPoint x="390" y="569" as="sourcePoint" />
            <mxPoint x="440" y="519" as="targetPoint" />
          </mxGeometry>
        </mxCell>
        <mxCell id="oNtJTbuHNWOZ2GnLEHNI-19" value="" style="endArrow=none;html=1;rounded=0;strokeColor=default;exitX=1;exitY=0.25;exitDx=0;exitDy=0;entryX=-0.013;entryY=0.085;entryDx=0;entryDy=0;entryPerimeter=0;" edge="1" parent="1" source="oPGQK5EQV7Yhb5FT4N1o-32" target="oPGQK5EQV7Yhb5FT4N1o-60">
          <mxGeometry width="50" height="50" relative="1" as="geometry">
            <mxPoint x="390" y="569" as="sourcePoint" />
            <mxPoint x="440" y="519" as="targetPoint" />
          </mxGeometry>
        </mxCell>
        <mxCell id="oNtJTbuHNWOZ2GnLEHNI-23" value="" style="endArrow=none;html=1;rounded=0;strokeColor=default;exitX=1;exitY=0.25;exitDx=0;exitDy=0;entryX=0;entryY=0;entryDx=0;entryDy=0;" edge="1" parent="1" source="oPGQK5EQV7Yhb5FT4N1o-11" target="oPGQK5EQV7Yhb5FT4N1o-70">
          <mxGeometry width="50" height="50" relative="1" as="geometry">
            <mxPoint x="390" y="569" as="sourcePoint" />
            <mxPoint x="440" y="519" as="targetPoint" />
          </mxGeometry>
        </mxCell>
        <mxCell id="oNtJTbuHNWOZ2GnLEHNI-24" value="" style="endArrow=none;html=1;rounded=0;strokeColor=default;exitX=0.5;exitY=0;exitDx=0;exitDy=0;entryX=0.003;entryY=0.049;entryDx=0;entryDy=0;entryPerimeter=0;" edge="1" parent="1" source="oPGQK5EQV7Yhb5FT4N1o-11" target="oPGQK5EQV7Yhb5FT4N1o-42">
          <mxGeometry width="50" height="50" relative="1" as="geometry">
            <mxPoint x="390" y="400" as="sourcePoint" />
            <mxPoint x="540" y="80" as="targetPoint" />
          </mxGeometry>
        </mxCell>
        <mxCell id="oNtJTbuHNWOZ2GnLEHNI-25" value="" style="endArrow=none;html=1;rounded=0;strokeColor=default;entryX=1.003;entryY=0.036;entryDx=0;entryDy=0;exitX=0.5;exitY=0;exitDx=0;exitDy=0;entryPerimeter=0;" edge="1" parent="1" source="oPGQK5EQV7Yhb5FT4N1o-56" target="oPGQK5EQV7Yhb5FT4N1o-42">
          <mxGeometry width="50" height="50" relative="1" as="geometry">
            <mxPoint x="390" y="400" as="sourcePoint" />
            <mxPoint x="440" y="350" as="targetPoint" />
          </mxGeometry>
        </mxCell>
        <mxCell id="oNtJTbuHNWOZ2GnLEHNI-26" value="" style="endArrow=none;html=1;rounded=0;strokeColor=default;entryX=0.25;entryY=0;entryDx=0;entryDy=0;exitX=1.019;exitY=0.082;exitDx=0;exitDy=0;exitPerimeter=0;" edge="1" parent="1" source="oPGQK5EQV7Yhb5FT4N1o-38" target="oPGQK5EQV7Yhb5FT4N1o-60">
          <mxGeometry width="50" height="50" relative="1" as="geometry">
            <mxPoint x="390" y="400" as="sourcePoint" />
            <mxPoint x="440" y="350" as="targetPoint" />
          </mxGeometry>
        </mxCell>
        <mxCell id="oNtJTbuHNWOZ2GnLEHNI-29" value="" style="endArrow=none;html=1;rounded=0;strokeColor=default;exitX=0;exitY=0.25;exitDx=0;exitDy=0;" edge="1" parent="1" source="oPGQK5EQV7Yhb5FT4N1o-29">
          <mxGeometry width="50" height="50" relative="1" as="geometry">
            <mxPoint x="390" y="400" as="sourcePoint" />
            <mxPoint x="230" y="450" as="targetPoint" />
            <Array as="points">
              <mxPoint x="210" y="560" />
            </Array>
          </mxGeometry>
        </mxCell>
        <mxCell id="oNtJTbuHNWOZ2GnLEHNI-30" value="" style="endArrow=none;html=1;rounded=0;strokeColor=default;entryX=0;entryY=0.25;entryDx=0;entryDy=0;exitX=0;exitY=0;exitDx=0;exitDy=0;" edge="1" parent="1" source="oPGQK5EQV7Yhb5FT4N1o-51" target="oPGQK5EQV7Yhb5FT4N1o-11">
          <mxGeometry width="50" height="50" relative="1" as="geometry">
            <mxPoint x="390" y="490" as="sourcePoint" />
            <mxPoint x="440" y="440" as="targetPoint" />
            <Array as="points">
              <mxPoint x="360" y="500" />
            </Array>
          </mxGeometry>
        </mxCell>
        <mxCell id="oNtJTbuHNWOZ2GnLEHNI-32" value="" style="endArrow=none;html=1;rounded=0;strokeColor=default;exitX=0.017;exitY=0.146;exitDx=0;exitDy=0;entryX=1.035;entryY=0.064;entryDx=0;entryDy=0;entryPerimeter=0;exitPerimeter=0;" edge="1" parent="1" source="oPGQK5EQV7Yhb5FT4N1o-72" target="oPGQK5EQV7Yhb5FT4N1o-42">
          <mxGeometry width="50" height="50" relative="1" as="geometry">
            <mxPoint x="390" y="490" as="sourcePoint" />
            <mxPoint x="440" y="440" as="targetPoint" />
          </mxGeometry>
        </mxCell>
        <mxCell id="oNtJTbuHNWOZ2GnLEHNI-35" value="" style="endArrow=none;html=1;rounded=0;strokeColor=default;entryX=0;entryY=0.25;entryDx=0;entryDy=0;exitX=0.25;exitY=0;exitDx=0;exitDy=0;" edge="1" parent="1" source="oPGQK5EQV7Yhb5FT4N1o-60" target="oPGQK5EQV7Yhb5FT4N1o-25">
          <mxGeometry width="50" height="50" relative="1" as="geometry">
            <mxPoint x="390" y="370" as="sourcePoint" />
            <mxPoint x="440" y="320" as="targetPoint" />
            <Array as="points">
              <mxPoint x="240" y="340" />
            </Array>
          </mxGeometry>
        </mxCell>
        <mxCell id="oNtJTbuHNWOZ2GnLEHNI-36" value="" style="endArrow=none;html=1;rounded=0;strokeColor=default;entryX=0.003;entryY=0.136;entryDx=0;entryDy=0;entryPerimeter=0;exitX=0.5;exitY=0;exitDx=0;exitDy=0;" edge="1" parent="1" source="oPGQK5EQV7Yhb5FT4N1o-56" target="oPGQK5EQV7Yhb5FT4N1o-72">
          <mxGeometry width="50" height="50" relative="1" as="geometry">
            <mxPoint x="690" y="390" as="sourcePoint" />
            <mxPoint x="440" y="320" as="targetPoint" />
            <Array as="points">
              <mxPoint x="680" y="260" />
            </Array>
          </mxGeometry>
        </mxCell>
        <mxCell id="oNtJTbuHNWOZ2GnLEHNI-40" value="" style="endArrow=none;html=1;rounded=0;strokeColor=default;exitX=0.75;exitY=0;exitDx=0;exitDy=0;entryX=0.003;entryY=0.099;entryDx=0;entryDy=0;entryPerimeter=0;" edge="1" parent="1" source="oPGQK5EQV7Yhb5FT4N1o-40" target="oPGQK5EQV7Yhb5FT4N1o-56">
          <mxGeometry width="50" height="50" relative="1" as="geometry">
            <mxPoint x="390" y="490" as="sourcePoint" />
            <mxPoint x="440" y="440" as="targetPoint" />
          </mxGeometry>
        </mxCell>
      </root>
    </mxGraphModel>
  </diagram>
</mxfile>
